<?xml version="1.0" encoding="UTF-8" standalone="no"?>
<!DOCTYPE svg PUBLIC "-//W3C//DTD SVG 1.1//EN" "http://www.w3.org/Graphics/SVG/1.1/DTD/svg11.dtd">
<svg width="100%" height="100%" viewBox="0 0 50 11" version="1.1" xmlns="http://www.w3.org/2000/svg" xmlns:xlink="http://www.w3.org/1999/xlink" xml:space="preserve" xmlns:serif="http://www.serif.com/" style="fill-rule:evenodd;clip-rule:evenodd;stroke-linejoin:round;stroke-miterlimit:2;">
    <g transform="matrix(1,0,0,1,-21,-15)">
        <path id="headwind_logo" d="M34.214,20.008C34.518,19.728 34.87,19.518 35.27,19.378C35.67,19.238 36.07,19.168 36.47,19.168C36.886,19.168 37.244,19.22 37.544,19.324C37.844,19.428 38.09,19.568 38.282,19.744C38.474,19.92 38.616,20.122 38.708,20.35C38.8,20.578 38.846,20.816 38.846,21.064L38.846,23.968C38.846,24.168 38.85,24.352 38.858,24.52C38.866,24.688 38.878,24.848 38.894,25L37.934,25C37.91,24.712 37.898,24.424 37.898,24.136L37.874,24.136C37.634,24.504 37.35,24.764 37.022,24.916C36.694,25.068 36.314,25.144 35.882,25.144C35.618,25.144 35.366,25.108 35.126,25.036C34.886,24.964 34.676,24.856 34.496,24.712C34.316,24.568 34.174,24.39 34.07,24.178C33.966,23.966 33.914,23.72 33.914,23.44C33.914,23.072 33.996,22.764 34.16,22.516C34.324,22.268 34.548,22.066 34.832,21.91C35.116,21.754 35.448,21.642 35.828,21.574C36.208,21.506 36.614,21.472 37.046,21.472L37.838,21.472L37.838,21.232C37.838,21.088 37.81,20.944 37.754,20.8C37.698,20.656 37.614,20.526 37.502,20.41C37.39,20.294 37.25,20.202 37.082,20.134C36.914,20.066 36.714,20.032 36.482,20.032C36.274,20.032 36.092,20.052 35.936,20.092C35.78,20.132 35.638,20.182 35.51,20.242C35.382,20.302 35.266,20.372 35.162,20.452C35.058,20.532 34.958,20.608 34.862,20.68L34.214,20.008ZM28.694,22.552C28.694,22.8 28.748,23.026 28.856,23.23C28.964,23.434 29.106,23.608 29.282,23.752C29.458,23.896 29.662,24.008 29.894,24.088C30.126,24.168 30.366,24.208 30.614,24.208C30.95,24.208 31.242,24.13 31.49,23.974C31.738,23.818 31.966,23.612 32.174,23.356L32.99,23.98C32.39,24.756 31.55,25.144 30.47,25.144C30.022,25.144 29.616,25.068 29.252,24.916C28.888,24.764 28.58,24.554 28.328,24.286C28.076,24.018 27.882,23.702 27.746,23.338C27.61,22.974 27.542,22.58 27.542,22.156C27.542,21.732 27.616,21.338 27.764,20.974C27.912,20.61 28.116,20.294 28.376,20.026C28.636,19.758 28.946,19.548 29.306,19.396C29.666,19.244 30.058,19.168 30.482,19.168C30.986,19.168 31.412,19.256 31.76,19.432C32.108,19.608 32.394,19.838 32.618,20.122C32.842,20.406 33.004,20.726 33.104,21.082C33.204,21.438 33.254,21.8 33.254,22.168L33.254,22.552L28.694,22.552ZM45.758,25L44.678,25L44.678,24.184L44.654,24.184C44.446,24.488 44.16,24.724 43.796,24.892C43.432,25.06 43.058,25.144 42.674,25.144C42.234,25.144 41.836,25.068 41.48,24.916C41.124,24.764 40.82,24.552 40.568,24.28C40.316,24.008 40.122,23.692 39.986,23.332C39.85,22.972 39.782,22.58 39.782,22.156C39.782,21.732 39.85,21.338 39.986,20.974C40.122,20.61 40.316,20.294 40.568,20.026C40.82,19.758 41.124,19.548 41.48,19.396C41.836,19.244 42.234,19.168 42.674,19.168C43.082,19.168 43.466,19.254 43.826,19.426C44.186,19.598 44.462,19.832 44.654,20.128L44.678,20.128L44.678,15.928L45.758,15.928L45.758,25ZM70.31,25L69.23,25L69.23,24.184L69.206,24.184C68.998,24.488 68.712,24.724 68.348,24.892C67.984,25.06 67.61,25.144 67.226,25.144C66.786,25.144 66.388,25.068 66.032,24.916C65.676,24.764 65.372,24.552 65.12,24.28C64.868,24.008 64.674,23.692 64.538,23.332C64.402,22.972 64.334,22.58 64.334,22.156C64.334,21.732 64.402,21.338 64.538,20.974C64.674,20.61 64.868,20.294 65.12,20.026C65.372,19.758 65.676,19.548 66.032,19.396C66.388,19.244 66.786,19.168 67.226,19.168C67.634,19.168 68.018,19.254 68.378,19.426C68.738,19.598 69.014,19.832 69.206,20.128L69.23,20.128L69.23,15.928L70.31,15.928L70.31,25ZM21.566,15.928L22.646,15.928L22.646,20.188L22.67,20.188C22.806,19.884 23.042,19.638 23.378,19.45C23.714,19.262 24.102,19.168 24.542,19.168C24.814,19.168 25.076,19.21 25.328,19.294C25.58,19.378 25.8,19.508 25.988,19.684C26.176,19.86 26.326,20.086 26.438,20.362C26.55,20.638 26.606,20.964 26.606,21.34L26.606,25L25.526,25L25.526,21.64C25.526,21.376 25.49,21.15 25.418,20.962C25.346,20.774 25.25,20.622 25.13,20.506C25.01,20.39 24.872,20.306 24.716,20.254C24.56,20.202 24.398,20.176 24.23,20.176C24.006,20.176 23.798,20.212 23.606,20.284C23.414,20.356 23.246,20.47 23.102,20.626C22.958,20.782 22.846,20.98 22.766,21.22C22.686,21.46 22.646,21.744 22.646,22.072L22.646,25L21.566,25L21.566,15.928ZM55.862,19.312L56.942,19.312L56.942,25L55.862,25L55.862,19.312ZM58.298,19.312L59.378,19.312L59.378,20.188L59.402,20.188C59.538,19.884 59.774,19.638 60.11,19.45C60.446,19.262 60.834,19.168 61.274,19.168C61.546,19.168 61.808,19.21 62.06,19.294C62.312,19.378 62.532,19.508 62.72,19.684C62.908,19.86 63.058,20.086 63.17,20.362C63.282,20.638 63.338,20.964 63.338,21.34L63.338,25L62.258,25L62.258,21.64C62.258,21.376 62.222,21.15 62.15,20.962C62.078,20.774 61.982,20.622 61.862,20.506C61.742,20.39 61.604,20.306 61.448,20.254C61.292,20.202 61.13,20.176 60.962,20.176C60.738,20.176 60.53,20.212 60.338,20.284C60.146,20.356 59.978,20.47 59.834,20.626C59.69,20.782 59.578,20.98 59.498,21.22C59.418,21.46 59.378,21.744 59.378,22.072L59.378,25L58.298,25L58.298,19.312ZM46.346,19.312L47.558,19.312L48.842,23.56L48.866,23.56L50.222,19.312L51.362,19.312L52.802,23.56L52.826,23.56L54.05,19.312L55.19,19.312L53.354,25L52.262,25L50.762,20.752L50.738,20.752L49.382,25L48.218,25L46.346,19.312ZM37.262,22.264C37.006,22.264 36.744,22.278 36.476,22.306C36.208,22.334 35.964,22.388 35.744,22.468C35.524,22.548 35.344,22.66 35.204,22.804C35.064,22.948 34.994,23.132 34.994,23.356C34.994,23.684 35.104,23.92 35.324,24.064C35.544,24.208 35.842,24.28 36.218,24.28C36.514,24.28 36.766,24.23 36.974,24.13C37.182,24.03 37.35,23.9 37.478,23.74C37.606,23.58 37.698,23.402 37.754,23.206C37.81,23.01 37.838,22.816 37.838,22.624L37.838,22.264L37.262,22.264ZM42.806,24.136C43.094,24.136 43.354,24.086 43.586,23.986C43.818,23.886 44.014,23.75 44.174,23.578C44.334,23.406 44.458,23.198 44.546,22.954C44.634,22.71 44.678,22.444 44.678,22.156C44.678,21.868 44.634,21.602 44.546,21.358C44.458,21.114 44.334,20.906 44.174,20.734C44.014,20.562 43.818,20.426 43.586,20.326C43.354,20.226 43.094,20.176 42.806,20.176C42.518,20.176 42.258,20.226 42.026,20.326C41.794,20.426 41.598,20.562 41.438,20.734C41.278,20.906 41.154,21.114 41.066,21.358C40.978,21.602 40.934,21.868 40.934,22.156C40.934,22.444 40.978,22.71 41.066,22.954C41.154,23.198 41.278,23.406 41.438,23.578C41.598,23.75 41.794,23.886 42.026,23.986C42.258,24.086 42.518,24.136 42.806,24.136ZM67.358,24.136C67.646,24.136 67.906,24.086 68.138,23.986C68.37,23.886 68.566,23.75 68.726,23.578C68.886,23.406 69.01,23.198 69.098,22.954C69.186,22.71 69.23,22.444 69.23,22.156C69.23,21.868 69.186,21.602 69.098,21.358C69.01,21.114 68.886,20.906 68.726,20.734C68.566,20.562 68.37,20.426 68.138,20.326C67.906,20.226 67.646,20.176 67.358,20.176C67.07,20.176 66.81,20.226 66.578,20.326C66.346,20.426 66.15,20.562 65.99,20.734C65.83,20.906 65.706,21.114 65.618,21.358C65.53,21.602 65.486,21.868 65.486,22.156C65.486,22.444 65.53,22.71 65.618,22.954C65.706,23.198 65.83,23.406 65.99,23.578C66.15,23.75 66.346,23.886 66.578,23.986C66.81,24.086 67.07,24.136 67.358,24.136ZM32.102,21.688C32.094,21.448 32.056,21.228 31.988,21.028C31.92,20.828 31.818,20.654 31.682,20.506C31.546,20.358 31.376,20.242 31.172,20.158C30.968,20.074 30.73,20.032 30.458,20.032C30.194,20.032 29.952,20.082 29.732,20.182C29.512,20.282 29.326,20.412 29.174,20.572C29.022,20.732 28.904,20.91 28.82,21.106C28.736,21.302 28.694,21.496 28.694,21.688L32.102,21.688ZM55.61,17.272C55.61,17.056 55.688,16.87 55.844,16.714C56,16.558 56.186,16.48 56.402,16.48C56.618,16.48 56.804,16.558 56.96,16.714C57.116,16.87 57.194,17.056 57.194,17.272C57.194,17.488 57.116,17.674 56.96,17.83C56.804,17.986 56.618,18.064 56.402,18.064C56.186,18.064 56,17.986 55.844,17.83C55.688,17.674 55.61,17.488 55.61,17.272Z" style="fill-rule:nonzero;"/>
    </g>
</svg>
