<?xml version="1.0" encoding="UTF-8" standalone="no"?><!DOCTYPE svg PUBLIC "-//W3C//DTD SVG 1.1//EN" "http://www.w3.org/Graphics/SVG/1.1/DTD/svg11.dtd"><svg width="100%" height="100%" viewBox="0 0 106 84" version="1.1" xmlns="http://www.w3.org/2000/svg" xmlns:xlink="http://www.w3.org/1999/xlink" xml:space="preserve" xmlns:serif="http://www.serif.com/" style="fill-rule:evenodd;clip-rule:evenodd;stroke-linejoin:round;stroke-miterlimit:2;"><path id="lofi_ui_logo_primary" d="M100.797,73.02l5.047,0l0,10.101l-21.955,0l0,-10.101l5.634,0l-0,-13.02l-8.373,-0l0,23.121l-11.274,0l0,-1.767c-0.529,0.423 -1.082,0.799 -1.656,1.128c-1.675,0.96 -3.691,1.461 -6.057,1.461c-3.678,-0 -6.555,-1.164 -8.663,-3.407c-2.078,-2.21 -3.166,-5.221 -3.166,-9.067l0,-21.57l11.275,0c-0,0 -0,20.22 -0,20.22c-0,1.168 0.225,2.089 0.795,2.73c0.502,0.565 1.193,0.817 2.047,0.817c1.035,0 2.027,-0.351 2.985,-1.021c0.961,-0.671 1.772,-1.555 2.44,-2.643l0,-20.103l30.921,0l0,23.121Zm-61.122,-24.979c3.296,-0 6.215,-0.75 8.763,-2.227c2.576,-1.494 4.57,-3.592 5.977,-6.298c1.376,-2.647 2.076,-5.683 2.076,-9.113c0,-3.398 -0.703,-6.389 -2.083,-8.98c-1.41,-2.646 -3.406,-4.694 -5.987,-6.147c-2.541,-1.431 -5.474,-2.159 -8.805,-2.159c-3.334,-0 -6.27,0.739 -8.813,2.193c-2.578,1.473 -4.573,3.541 -5.981,6.206c-1.378,2.608 -2.081,5.627 -2.081,9.063c0,3.439 0.714,6.461 2.115,9.071c1.428,2.662 3.431,4.727 6.006,6.198c2.543,1.453 5.479,2.193 8.813,2.193Zm23.382,-34.102l-0,-2.198c-0,-3.39 1.114,-6.102 3.285,-8.16c2.139,-2.027 4.977,-3.081 8.543,-3.081c2.362,-0 4.98,0.575 7.848,1.756l1.422,0.586l-4.132,9.36l-1.408,-0.703c-1.083,-0.542 -2.048,-0.84 -2.909,-0.84c-0.44,0 -0.802,0.075 -1.051,0.324c-0.262,0.262 -0.324,0.666 -0.324,1.169l0,1.787l26.466,-0l0,23.121l5.047,-0l0,10.101l-21.955,-0l0,-10.101l5.634,-0l-0,-13.021l-15.192,0l0,13.021l7.042,-0l0,10.101l-23.657,-0l0,-10.101l5.341,-0l-0,-13.021l-5.341,0l0,-10.1l5.341,-0Zm-45.942,23.121l5.34,-0l-0,10.101l-21.955,-0l0,-10.101l5.34,-0l0,-25.696l-5.047,-0l0,-10.042l16.322,-0l-0,35.738Zm22.501,0.821c-1.62,0 -2.92,-0.615 -3.895,-1.86c-1.086,-1.387 -1.588,-3.228 -1.588,-5.501c-0,-2.262 0.496,-4.081 1.577,-5.428c0.977,-1.218 2.283,-1.816 3.906,-1.816c1.624,0 2.929,0.598 3.906,1.816c1.082,1.347 1.577,3.166 1.577,5.428c0,2.273 -0.502,4.114 -1.588,5.501c-0.975,1.245 -2.275,1.86 -3.895,1.86Zm48.851,-36.559l-0,10.628l12.448,0l-0,-10.628l-12.448,-0Z" style="fill-rule:nonzero;"/></svg>